<svg version="1.2" xmlns="http://www.w3.org/2000/svg" viewBox="0 0 525 525" width="525" height="525">
	<title>racc</title>
	<defs>
		<linearGradient id="g1" x2="1" gradientUnits="userSpaceOnUse" gradientTransform="matrix(-340.687,-20.55,13.942,-231.145,362.961,372.265)">
			<stop offset="0" stop-color="#b1a398"/>
			<stop offset="1" stop-color="#cec2b7"/>
		</linearGradient>
	</defs>
	<style>
		.s0 { fill: #372a28 } 
		.s1 { fill: #958378 } 
		.s2 { fill: #c4b6a9 } 
		.s3 { fill: #6b5a53 } 
		.s4 { fill: #fefdfc } 
		.s5 { fill: #7d746f } 
		.s6 { fill: #f1e8da } 
		.s7 { fill: url(#g1) } 
		.s8 { fill: #584742 } 
	</style>
	<g id="Carpeta 1">
		<path fill-rule="evenodd" class="s0" d="m92.4 454.4c-8.7-5.5-16.3-9.4-24.2-16.1-4.2-2.8-11.2-9.8-14.6-13.4-21.4-22.9-38.3-55-44.9-85.8-6.6-27.8-7.8-60.2-2.1-88.3 0.7-4.1 1.8-9 3-13 0.5-3.8 4.6-14.7 6-18.3-1.6-3.8-2.6-6.4-3.9-10.4-2.8-7-5.7-18.7-7.1-26.2-0.5-1.6-1.7-8.7-2.1-10.9-2.9-20.5-5-51.5 3.6-70.6 15.9-35.2 71.3-15.2 96-3.4 4.7-5.3 10.6-9.7 16.4-13.8 80-56.2 189.7-62.8 276.2-17.4 5.5 2.9 10.9 6.1 16.4 9 15-5.8 31.3-14.5 48.1-11 33.2 6.9 32.9 62.6 27.3 87.2l2.5 3.9c12.8 20.9 27.8 54 31.3 78.6 6.3 27.1 6.1 67.8 0.6 95-9.8 51.1-35.6 92.2-78.8 122.1-15.5 10.8-28.1 16.1-46.2 21.6l-46.7 15c-60.8 24.4-207-6.1-256.8-33.8z"/>
		<path class="s1" d="m93.3 320.4c-1.4-8.5 1.8-26.4 3.8-35 4.8-20.1 11.1-32.5 21.8-49.5 19.2-30.7 39-47.2 69.8-65.3 43.8-25.7 95.9-33.5 145.9-27.4 12.6 1.5 26.3 5 38.4 8-2.9 4.2-4 8.7 1.9 10.8 5.5-1.2 9.4-2.2 14.7-4.1 10.8-3.9 17.5-8.9 29.2-9 12.9 12.1 11.6 34.6 8.4 50.4-5-6.5-22.8-31.1-32.4-26.9-3.2 3.8 3.9 9.6 6.5 12.3 12.2 12.6 22.6 29.7 29.2 46 6.9 17.6 10.6 27.9 13.9 46.6 4.4 14.7 5.7 25.7 15.9 38.3 4.1 4.9 16 10.1 14 14.6-2.5 5.6-18 6.1-16.1 13.9 5.8 2.8 13.6 4 16.3 10.9 2.2 5.4-6.8 14-9.7 18.5-1.9 3.1-5.4 8.6-7.5 11.1-26.8 40.4-68 62.7-114.9 71-68.4 12.1-181.6 8.9-225.4-54.1q-0.2-0.1-0.3-0.2c-11-13.1-19.8-36-22.1-52.5-1.1-5.7-2.5-22.9-1.3-28.4z"/>
		<path class="s2" d="m318.8 330.8c1.6-0.5 3-1.7 4.3-2.1 10.4-4 23.9-4.7 34.2-0.9 3.6 2.3 5 3.3 7.6 6.8l1.3 2.6c3.1 3.6 3.3 3.7 7.8 5 10.7 3.7 15.4 10.3 24.4 17.1 15.7 11.9 32.7 19.6 51.8 24.3 2.1 0.1 5.1 0.1 7.1 1-26.8 40.4-68 62.7-114.9 71-68.4 12.1-181.6 8.9-225.4-54.1 3.5 0.1 11.7 4.1 15.5 5.4 4.2 1.4 7.4 2.3 11.7 3.3 17.1 3.5 41.5 3.2 57.9-2.9 31.6-11.8 67.3-39 89-64.5 10.3-5.7 16.5-8.2 27.7-12z"/>
		<path class="s1" d="m450.2 383.6c2.1 0.1 5.1 0.1 7.1 1-26.8 40.4-68 62.7-114.9 71-68.4 12.1-181.6 8.9-225.4-54.1 3.5 0.1 11.7 4.1 15.5 5.4 4.2 1.4 7.4 2.3 11.7 3.3l-1 0.4 0.2 0.9c18.4 19.4 54.4 28.2 80.3 32.6 51.2 8.8 107.4 7.6 156.8-9.6 21.6-7.5 48.4-23.9 63-41.8 1.4-2 5.7-7.1 6.7-9.1z"/>
		<path class="s0" d="m318.8 330.8c1.6-0.5 3-1.7 4.3-2.1 10.4-4 23.9-4.7 34.2-0.9 3.6 2.3 5 3.3 7.6 6.8l1.3 2.6c1.2 11.8-6.6 18.9-16.2 23.7 0.1 6-0.3 10.9-2.1 16.6-0.8 2.5-2 4.5-2.3 6.8 0.5 0.6 0.9 1 1.7 1.3 11.9 3.5 14.6-5.7 22.3-10.9 1.1-0.7 2-0.2 3 0.3 2.7 3.7 2.4 7.5-0.3 11.2-9.1 12.1-21.6 16-34.2 7.2-6.8 4.7-12.6 8.7-21.5 9.3-12.5 0.8-27.2-7.4-28-21-0.1-2.2 0.3-4 1.9-5.5 5.9-1.3 12.6 13.2 22.4 13.3 19.8 0.2 23.9-11.8 26.1-27.9-5.9-1.5-9.9-2.6-14.9-6.4-8-6-12.6-15.8-5.3-24.4z"/>
		<path class="s3" d="m103.9 338.8c34.7-30.1 68.5-77.6 114.8-89.1 38-9.5 69.7 16.2 78 53 2.1 17.1 2.5 24.3-5.6 40.1-21.7 25.5-57.4 52.7-89 64.5-16.4 6.1-40.8 6.4-57.9 2.9-4.3-1-7.5-1.9-11.7-3.3-3.8-1.3-12-5.3-15.5-5.4q-0.2-0.1-0.3-0.2c-11-13.1-19.8-36-22.1-52.5 3.2-3.8 5.7-6.4 9.3-10z"/>
		<path class="s0" d="m228.4 287.4c4.9-0.3 9.5-0.4 14 1.9 23.5 12 22 56-3.8 64.5-37.1 9.2-42.4-57.6-10.2-66.4z"/>
		<path class="s4" d="m237.6 298.6c9.8-0.1 13.5 9.2 4.9 14.5-10.4 1.5-13.6-9.4-4.9-14.5z"/>
		<path class="s3" d="m345.4 288.7c0.1-7.3 2-14.1 5.1-20.6 18.7-39.2 58.1-30.8 83.2-3.2 3.6 3.9 6.9 8.7 10.2 12.9l0.5-0.5c4.4 14.7 5.7 25.7 15.9 38.3 4.1 4.9 16 10.1 14 14.6-2.5 5.6-18 6.1-16.1 13.9 5.8 2.8 13.6 4 16.3 10.9 2.2 5.4-6.8 14-9.7 18.5-1.9 3.1-5.4 8.6-7.5 11.1-2-0.9-5-0.9-7.1-1-19.1-4.7-36.1-12.4-51.8-24.3-9-6.8-13.7-13.4-24.4-17.1-4.5-1.3-4.7-1.4-7.8-5l-1.3-2.6c-2.6-3.5-4-4.5-7.6-6.8-0.2-0.9-4.4-7.4-5.3-8.9-5.9-10.9-6.5-18.4-6.6-30.2z"/>
		<path class="s5" d="m364.9 334.6c3.2-0.8 8.1 4.9 9.1 7.6-4.5-1.3-4.7-1.4-7.8-5z"/>
		<path class="s0" d="m368.4 301.9c6.6-30.9 35.1-31.4 41.5-0.7 2.6 12.3 1.3 32.7-11.7 39.5-16.3 7.5-28.3-10-29.8-24.1-0.7-6.1-0.6-8.5 0-14.7z"/>
		<path class="s4" d="m390.6 288.2c3.8-0.8 7.6 1.7 8.4 5.5 0.8 3.8-1.7 7.6-5.5 8.4-3.8 0.8-7.6-1.7-8.4-5.5-0.8-3.9 1.7-7.6 5.5-8.4z"/>
		<path class="s2" d="m102.6 308.8c26.2-34.4 59.6-67.4 100.6-81.4 37.9-13 79.8 2.4 90.1 42.5 1.5 5.9 6.1 27.8 3.4 32.8-8.3-36.8-40-62.5-78-53-46.3 11.5-80.1 59-114.8 89.1-3.6 3.6-6.1 6.2-9.3 10-1.1-5.7-2.5-22.9-1.3-28.4 2.7-3.8 5.9-7.9 8.8-11.6z"/>
		<path class="s1" d="m102.1 308.8h0.5c0.7 2.7 0.7 23.9 1.3 30-3.6 3.6-6.1 6.2-9.3 10-1.1-5.7-2.5-22.9-1.3-28.4 2.7-3.8 5.9-7.9 8.8-11.6z"/>
		<path class="s3" d="m93.3 320.4c-1.4-8.5 1.8-26.4 3.8-35 4.8-20.1 11.1-32.5 21.8-49.5 19.2-30.7 39-47.2 69.8-65.3 43.8-25.7 95.9-33.5 145.9-27.4 12.6 1.5 26.3 5 38.4 8-2.9 4.2-4 8.7 1.9 10.8-11 0.8-20.4-2.9-31-4.6-36.4-5.7-79.5-6.1-114.6 6-51.8 17.9-94.8 60.5-115.8 110.7-5.7 13.6-11 18.6-11.4 34.7-2.9 3.7-6.1 7.8-8.8 11.6z"/>
		<path class="s2" d="m344.3 296.4c-1.5-13.8-3.5-29.2 0-42.6 8.3-32 43.4-46.9 71.9-29.8 3 1.7 10.2 7 12.9 7.7l1.4-1c6.9 17.6 10.6 27.9 13.9 46.6l-0.5 0.5c-3.3-4.2-6.6-9-10.2-12.9-25.1-27.6-64.5-36-83.2 3.2-3.1 6.5-5 13.3-5.1 20.6-0.5 2.3-0.6 5-1.1 7.7z"/>
		<path class="s6" d="m114.8 107.5c102.8-84.8 258.9-70.6 343.5 32.3 40.1 48.7 57.3 106.2 50.7 169-4.9 48.5-24.8 89-62.5 120.5-19.2 16-47.9 31.9-73.1 33.3 30.4-10 53.2-20.1 76-43.9 8.8-8.9 16.8-18.8 22.4-30.1 1.2-2.5 4.1-8.8 5.8-10.8 12.6-14.8 18-19.2 1.9-35.1 19.6-19.7 5.5-21.6-8.4-36.9-13.2-14.6-11.6-37.6-17.6-55.3-5.2-17.6-9-23-16.3-38.7 7.1-21.4 8.8-42.8-1-63.7-10.7-22.7-34-10.7-51.1-6-50-22.5-123.2-18.2-173.7 0.9-52.2 19.7-96.7 58.5-118.8 110.2-21.2 49.3-20.6 102.2 6.2 149.2 0.4 2.3 1.2 2.7 0.8 4.5l-1 0.2c-0.8-0.5-1.9-1.2-2.6-1.9-35.9-34.2-51.8-86.7-48-135.5 0.9-12.7 3.9-22.8 6.3-35q-0.1-0.4-0.2-0.9c11.7-16.3 24-33 38.2-47.4 10.4-10.6 21.4-21.6 31.9-32.1 22-22.2 12.6-32.9-9.4-46.8z"/>
		<path class="s4" d="m455.8 183.1c1-0.1 2.2-0.2 3.2 0.1 5.1 1.2 9.6 8.5 12.1 12.9 3.9 6.8 18.5 40.7 15.6 47.9-0.7 1.8-2.3 2.8-4 3.6-5.4 0.9-8.7 1.4-11.8-3.6-4.5-7.7-7.1-15.4-10.2-24-3.2-8.9-11.3-21.1-9.5-30.7 0.5-2.7 2.3-4.8 4.6-6.2z"/>
		<path class="s4" d="m351.5 88.9c14.3-1 34.5 9.7 42.7 21.4 2.9 4.1-0.3 8-4.2 9.7-10.9 0.2-21.1-6.5-30.4-11.5-7.9-4.2-20-11.9-8.1-19.6z"/>
		<path class="s4" d="m310 74.6c5.6-0.1 12.2 1 16.1 5.6 2.5 3-1 6.5-3.7 7.9-9.2 1.6-23.5-2.9-12.4-13.5z"/>
		<path class="s7" d="m31.2 239.8c9.6 3.6 15.9 0.6 22.9-6q0.1 0.5 0.2 0.9c-2.4 12.2-5.4 22.3-6.3 35-3.8 48.8 12.1 101.3 48 135.5 0.7 0.7 1.8 1.4 2.6 1.9l1-0.2c0.4-1.8-0.4-2.2-0.8-4.5 5.7 8.4 10.1 14.6 17.2 22.1 25.6 27.1 60.2 39.3 95.8 46 44.5 8.4 103.5 9.1 147.3-3.3-4.2 7.5-7.9 9.3-16.2 11.7-12.7 3.6-25.8 4.7-39 5.6-55 3.9-111.5-6.3-163.1-25.6-14.4-5.4-29.8-12.1-43.3-19.4-10.6-5.7-30.1-20.3-36.8-30.5-6.5-7.2-14.2-18.6-18.9-27.1-25.2-45.5-29.3-95.8-15.5-145.4 1.6 1.2 3.3 2.2 4.9 3.3z"/>
		<path class="s6" d="m26.3 236.5c1.6 1.2 3.3 2.2 4.9 3.3-10.7 48-4.6 106.2 22.1 148.2 0.8 1.3 4 5.1 4.1 6.1-1.3-0.7-1.5-1.2-2.3-2.4-2.3-0.7-4.1 0-4.4 2.6 1.8 4.8 9.6 10.9 10 14.7-6.5-7.2-14.2-18.6-18.9-27.1-25.2-45.5-29.3-95.8-15.5-145.4z"/>
		<path class="s1" d="m22.8 104.4c1.2-1.3 3.6-3.7 5.1-4.4 24.9-11.3 80 14.5 95.6 33.2-3.5 8-14.5 18.5-21 24.8-9.1-13.5-31.2-24.7-46.9-27.5-9.7-1.7-14.8-0.8-15.7 9.9l0.4 0.5c0.9-2.2 0.2-1.5 2-2.3 3 0.2 6.9 1.8 9.8 2.8 16.1 5.8 26.5 13.9 39.6 24.5-5 5.7-10 11.6-15.1 17.2-8 8.7-14.5 18-21.5 27.5-2 3-3.6 5.7-5.8 8.6-1.1 2.1-5.5 7.4-7.8 8.5-0.6 0.5-2.6 0.6-3.1-0.1-18.9-22.8-30.4-101.4-15.6-123.2z"/>
		<path class="s8" d="m39.9 140.4l0.4 0.5c0.9-2.2 0.2-1.5 2-2.3 3 0.2 6.9 1.8 9.8 2.8 16.1 5.8 26.5 13.9 39.6 24.5-5 5.7-10 11.6-15.1 17.2-8 8.7-14.5 18-21.5 27.5-7.7-12.4-12-26.6-14.3-40.8-1-6.1-3.2-23.6-0.9-29.4z"/>
		<path class="s3" d="m22.8 104.4c1.7 0.3 2.9 0.5 4.6 1.1 1.1 35.2 1 65.2 15.6 98.1 1.9 4.2 4.2 12.3 6.3 15.6-1.1 2.1-5.5 7.4-7.8 8.5-0.6 0.5-2.6 0.6-3.1-0.1-18.9-22.8-30.4-101.4-15.6-123.2z"/>
		<path class="s1" d="m447.1 79.8c12.6-1.6 18.7 4.1 22.4 15.9 3.9 12.4 4 25.4 3.7 38.2-3-4-6-7.5-9.2-11.2-10.9-12.8-26.3-26-39.5-36.1 7.5-3 14.6-5.2 22.6-6.8z"/>
	</g>
</svg>