<?xml version="1.0" encoding="utf-8" ?><svg xmlns="http://www.w3.org/2000/svg" xmlns:xlink="http://www.w3.org/1999/xlink" width="1024" height="1024" viewBox="0 0 1024 1024"><path fill="#372A28" d="M370.508 103.019C375.122 97.8057 380.865 93.4281 386.544 89.4402C465.157 34.2334 572.953 27.757 657.904 72.3462C663.301 75.1788 668.597 78.312 674.011 81.1344C688.782 75.4814 704.751 66.8879 721.315 70.3574C753.894 77.181 753.607 131.819 748.128 156.033L750.557 159.832C763.126 180.384 777.894 212.931 781.289 237.092C787.477 263.714 787.262 303.676 781.843 330.391C772.294 380.628 746.876 421.006 704.508 450.367C689.212 460.968 676.864 466.144 659.143 471.579L663.896 474.213C680.563 480.592 680.724 481.789 698.755 479.702C710.493 478.343 735.76 485.714 742.017 497.334C744.418 500.449 745.529 503.265 746.481 507.061L746.863 508.128C748.555 508.57 752.322 508.046 754.344 507.916C794.373 505.356 835.874 509.144 874.429 520.291C890.745 525.008 917.656 535.763 929.076 547.54C934.205 551.773 938.108 557.037 939.816 563.551C940.933 567.441 941.584 576.212 940.271 579.887C937.243 603.689 918.146 637.752 904.693 657.306C901.968 661.267 896.447 669.652 893.245 673.113C887.828 681.474 876.681 693.544 869.737 700.84C864.481 706.826 859.111 712.264 853.076 717.454C849.914 720.853 844.094 726.747 840.267 729.457C819.929 748.511 794.121 766.483 770.686 781.488C713.69 817.983 652.429 845.481 587.5 864.516C569.365 869.833 553.926 872.98 535.97 877.29C533.523 882.575 529.261 891.948 525.53 896.19C523.302 899.663 512.72 915.282 510.014 917.111C494.426 938.784 454.603 962.782 428.396 968.384C418.782 970.604 400.105 972.781 397.721 958.525C397.393 956.559 397.404 955.343 396.385 953.618C390.439 955.263 383.348 957.406 377.338 958.308L376.466 958.518C369.252 960.183 353.294 961.422 347.632 956.71C334.982 946.182 342.096 935.579 351.085 927.35C362.693 916.723 373.927 904.493 382.768 892.093C378.753 890.058 374.118 888.356 370.296 886.071C366.856 884.015 362.592 879.465 358.787 877.71C358.223 877.45 356.712 878.371 355.94 878.729C350.764 882.797 331.967 887.068 325.436 884.257C321.21 883.872 317.411 881.016 314.4 878.211L305.921 867.438C303.22 863.531 300.472 859.193 297.893 855.192C288.283 840.482 276.084 810.932 273.13 793.562L272.134 789.739C271.15 785.396 270.829 782.348 270.405 777.913L270.135 778.004C269.863 773.094 269.345 767.154 269.898 762.356C271.464 746.943 283.225 742.764 295.692 737.487C283.064 724.33 249.968 717.558 232.292 715.736C223.665 714.846 207.365 715.594 200.854 709.818C195.506 705.915 193.502 699.815 195.139 693.434C197.434 678.617 231.644 658.403 244.832 652.067C273.765 638.166 306.837 634.989 337.938 642.916C347.728 645.411 355.996 648.712 365.475 652.103C363.277 649.532 360.019 645.952 358.326 643.183C355.074 639.262 350.559 630.228 348.678 625.449C347.1 622.472 346.316 619.02 344.442 615.646C334.915 621.178 322.312 626.075 311.396 627.845C295.372 631.421 279.207 630.12 263.157 627.841C256.97 626.627 250.933 625.414 244.987 623.256C227.684 619.164 199.627 601.355 188.761 587.824C173.753 575.618 157.733 539.636 154.743 519.873C153.662 515.883 152.846 511.685 152.554 507.559C150.881 500.908 150.276 490.162 149.781 483.155C146.988 454.256 151.398 425.875 131.691 402.109C128.841 398.672 125.68 391.582 126.955 387.314C134.825 360.974 172.924 362.343 194.225 366.438C220.292 371.725 251.477 389.554 265.923 411.359C278.373 424.133 289.131 450.159 293.332 467.637C294.619 471.921 295.602 475.671 296.639 480.024C297.708 485.925 299.508 493.005 300.339 498.635C304.025 515.567 306.279 527.545 316.849 541.847C320.431 506.049 335.721 478.723 358.878 452.195C350.395 446.808 344.955 443.892 337.165 437.289C333.072 434.498 326.205 427.697 322.851 424.105C301.833 401.605 285.168 370.052 278.686 339.857C272.21 312.509 271.019 280.716 276.667 253.119C277.317 249.017 278.412 244.226 279.631 240.283C280.096 236.569 284.158 225.849 285.527 222.369C283.919 218.602 282.93 216.033 281.691 212.14C278.87 205.293 276.074 193.778 274.699 186.389C274.171 184.844 272.99 177.818 272.673 175.653C269.823 155.531 267.725 125.07 276.186 106.342C291.827 71.7229 346.169 91.4298 370.508 103.019Z"/><path fill="#15110F" d="M525.53 896.19L525.334 895.222C526.041 893.61 535.565 876.613 536.198 876.462C597.044 861.899 656.794 842.646 712.26 813.182C715.305 811.564 720.686 809.727 723.035 808.322C738.962 798.794 755.197 789.767 770.749 779.625C777.239 775.305 785.465 771.152 791.485 766.547C807.046 754.644 825.063 741.991 839.425 728.885L840.267 729.457C819.929 748.511 794.121 766.483 770.686 781.488C713.69 817.983 652.429 845.481 587.5 864.516C569.365 869.833 553.926 872.98 535.97 877.29C533.523 882.575 529.261 891.948 525.53 896.19Z"/><path fill="#15110F" d="M656.212 472.035C664.882 467.52 674.771 465.651 682.847 461.535C722.235 441.456 753.682 409.39 769.595 367.81C772.38 360.636 774.847 353.434 776.956 346.039C778.085 342.079 779.057 332.723 781.237 329.74L781.843 330.391C772.294 380.628 746.876 421.006 704.508 450.367C689.212 460.968 676.864 466.144 659.143 471.579L663.896 474.213L663.239 474.548C661.769 474.632 658.091 472.739 656.212 472.035Z"/><path fill="#15110F" d="M278.686 339.857L279.363 339.286C291.012 375.797 304.36 408.062 334.332 433.603C335.922 434.958 336.612 435.341 337.96 437.038L337.165 437.289C333.072 434.498 326.205 427.697 322.851 424.105C301.833 401.605 285.168 370.052 278.686 339.857Z"/><path fill="#15110F" d="M428.396 968.384L427.559 967.796C428.679 966.535 432.221 965.773 433.907 965.291C456.198 958.915 475.518 946.911 493.548 932.628C497.706 929.334 505.478 918.741 510.014 917.111C494.426 938.784 454.603 962.782 428.396 968.384Z"/><path fill="#15110F" d="M893.245 673.113C893.016 670.888 906.817 652.455 908.997 648.926C920.616 630.128 930.866 610.019 937.092 588.746C937.664 586.792 938.514 580.424 939.695 579.372L940.271 579.887C937.243 603.689 918.146 637.752 904.693 657.306C901.968 661.267 896.447 669.652 893.245 673.113Z"/><path fill="#15110F" d="M781.289 237.092L780.479 237.729L779.922 237.301C776.457 218.837 769.018 198.956 761.573 181.884C758.332 174.453 753.065 168.272 749.817 160.263L750.557 159.832C763.126 180.384 777.894 212.931 781.289 237.092Z"/><path fill="#15110F" d="M154.743 519.873L156.052 520.344C161.213 538.266 165.886 554.654 176.369 570.311C178.493 573.483 188.606 585.336 188.761 587.824C173.753 575.618 157.733 539.636 154.743 519.873Z"/><path fill="#15110F" d="M265.923 411.359C278.373 424.133 289.131 450.159 293.332 467.637L292.449 468.025C290.966 466.349 287.914 453.524 286.202 449.197C281.426 437.125 275.017 425.696 267.58 415.016C266.865 413.989 266.415 413.729 265.438 412.162L265.923 411.359Z"/><path fill="#15110F" d="M311.396 627.845C310.697 627.492 311.006 627.745 310.506 627.04C316.568 626.748 328.928 621.041 335.009 618.955C337.725 618.023 341.817 614.916 344.442 615.646C334.915 621.178 322.312 626.075 311.396 627.845Z"/><path fill="#15110F" d="M325.436 884.257L325.898 883.891C329.396 883.949 332.689 884.058 336.254 883.817C340.235 883.547 353.447 878.029 355.94 878.729C350.764 882.797 331.967 887.068 325.436 884.257Z"/><path fill="#15110F" d="M274.699 186.389L275.277 185.769L275.961 186.195C276.793 189.996 282.665 210.109 281.771 212.049C281.754 212.086 281.717 212.11 281.691 212.14C278.87 205.293 276.074 193.778 274.699 186.389Z"/><path fill="#15110F" d="M853.076 717.454C853.363 714.372 865.859 703.145 868.87 700.445L869.737 700.84C864.481 706.826 859.111 712.264 853.076 717.454Z"/><path fill="#15110F" d="M149.781 483.155C149.836 481.554 149.761 479.676 150.338 478.224L150.341 479.069C150.401 484.927 154.17 504.88 152.554 507.559C150.881 500.908 150.276 490.162 149.781 483.155Z"/><path fill="#15110F" d="M929.076 547.54C934.205 551.773 938.108 557.037 939.816 563.551L938.948 563.566C938.658 563.1 937.801 561.709 937.695 561.258C936.787 557.416 929.328 550.739 929.076 547.54Z"/><path fill="#15110F" d="M296.639 480.024C297.708 485.925 299.508 493.005 300.339 498.635C300.052 499.15 300.263 498.884 299.592 499.33C297.852 497.34 294.873 483.179 296.639 480.024Z"/><path fill="#15110F" d="M377.338 958.308L376.492 957.783C379.317 956.261 393.609 952.265 396.385 953.618C390.439 955.263 383.348 957.406 377.338 958.308Z"/><path fill="#15110F" d="M348.678 625.449L349.523 625.475C351.31 628.667 358.67 640.95 358.326 643.183C355.074 639.262 350.559 630.228 348.678 625.449Z"/><path fill="#15110F" d="M244.987 623.256C248.697 622.862 260.808 625.78 264.216 627.312C263.396 627.842 263.774 627.729 263.157 627.841C256.97 626.627 250.933 625.414 244.987 623.256Z"/><path fill="#15110F" d="M195.139 693.434C196.604 696.037 195.976 700.908 197.396 703.88C198.087 705.326 200.082 707.816 201.086 709.138L200.854 709.818C195.506 705.915 193.502 699.815 195.139 693.434Z"/><path fill="#15110F" d="M270.405 777.913L270.818 776.378C271.681 779.838 274.241 790.358 273.13 793.562L272.134 789.739C271.15 785.396 270.829 782.348 270.405 777.913Z"/><path fill="#15110F" d="M279.631 240.283C280.5 243.462 279.149 250.699 277.791 253.525L277.038 253.794L276.667 253.119C277.317 249.017 278.412 244.226 279.631 240.283Z"/><path fill="#15110F" d="M746.481 507.061C745.717 507.592 746.131 507.45 745.252 507.521C744.239 505.393 741.486 499.287 742.017 497.334C744.418 500.449 745.529 503.265 746.481 507.061Z"/><path fill="#958378" d="M361.829 321.459C360.453 313.067 363.58 295.497 365.596 287.071C370.312 267.365 376.46 255.166 386.962 238.418C405.876 208.256 425.254 192.066 455.551 174.267C498.535 149.014 549.781 141.41 598.909 147.346C611.232 148.835 624.717 152.258 636.643 155.231C633.716 159.354 632.664 163.756 638.494 165.897C643.823 164.681 647.733 163.714 652.947 161.834C663.493 158.033 670.054 153.064 681.592 152.957C694.279 164.846 692.947 186.958 689.854 202.496C684.89 196.067 667.488 171.934 658.043 176.048C654.886 179.821 661.811 185.486 664.39 188.151C676.374 200.533 686.564 217.324 693.078 233.324C699.826 250.64 703.455 260.742 706.771 279.13C711.099 293.607 712.342 304.394 722.4 316.74C726.364 321.605 738.059 326.633 736.112 331.058C733.677 336.594 718.455 337.124 720.288 344.757C725.954 347.518 733.652 348.64 736.356 355.451C738.451 360.73 729.597 369.236 726.827 373.625C724.936 376.621 721.497 382.038 719.364 384.488C693.058 424.244 652.591 446.129 606.489 454.305C539.385 466.207 428.114 463.045 385.086 401.092C384.996 401.027 384.906 400.962 384.816 400.897C373.986 388.111 365.338 365.597 363.086 349.405C362.034 343.732 360.601 326.839 361.829 321.459Z"/><path fill="#C4B6A9" d="M583.376 331.724C584.894 331.136 586.277 330.045 587.534 329.568C597.793 325.68 611.01 324.976 621.218 328.7C624.664 331.028 626.114 331.975 628.639 335.442L629.917 337.969C633.005 341.456 633.168 341.643 637.608 342.885C648.122 346.554 652.696 352.952 661.51 359.629C676.947 371.323 693.648 378.923 712.414 383.569C714.533 383.597 717.412 383.595 719.364 384.488C693.058 424.244 652.591 446.129 606.489 454.305C539.385 466.207 428.114 463.045 385.086 401.092C388.51 401.266 396.583 405.199 400.337 406.443C404.486 407.817 407.566 408.675 411.875 409.711C428.661 413.083 452.643 412.802 468.701 406.822C499.751 395.259 534.782 368.484 556.112 343.465C566.241 337.866 572.349 335.41 583.376 331.724Z"/><path fill="#958378" d="M712.414 383.569C714.533 383.597 717.412 383.595 719.364 384.488C693.058 424.244 652.591 446.129 606.489 454.305C539.385 466.207 428.114 463.045 385.086 401.092C388.51 401.266 396.583 405.199 400.337 406.443C404.486 407.817 407.566 408.675 411.875 409.711L410.87 410.108L411.052 410.981C429.113 429.964 464.485 438.642 489.913 442.987C540.206 451.579 595.407 450.429 643.978 433.575C665.228 426.201 691.488 410.027 705.825 392.448C707.277 390.568 711.48 385.528 712.414 383.569Z"/><path fill="#372A28" d="M583.376 331.724C584.894 331.136 586.277 330.045 587.534 329.568C597.793 325.68 611.01 324.976 621.218 328.7C624.664 331.028 626.114 331.975 628.639 335.442L629.917 337.969C631.069 349.565 623.459 356.481 614.01 361.275C614.086 367.118 613.707 371.997 611.93 377.6C611.18 379.968 610.002 381.96 609.653 384.251C610.197 384.836 610.593 385.261 611.324 385.478C623.07 388.951 625.677 379.927 633.296 374.831C634.318 374.147 635.269 374.645 636.208 375.077C638.854 378.775 638.567 382.491 635.886 386.082C626.985 398.004 614.642 401.792 602.313 393.159C595.623 397.771 589.907 401.757 581.179 402.3C568.924 403.062 554.519 395.086 553.676 381.707C553.539 379.528 553.951 377.791 555.552 376.227C561.355 374.968 567.919 389.288 577.566 389.358C597.035 389.5 601.077 377.796 603.168 361.968C597.407 360.493 593.441 359.337 588.607 355.691C580.7 349.729 576.177 340.144 583.376 331.724Z"/><path fill="#6B5A53" d="M372.219 339.56C406.349 309.976 439.506 263.302 485.002 251.959C522.334 242.651 553.526 267.893 561.686 304.024C563.709 320.84 564.058 327.948 556.112 343.465C534.782 368.484 499.751 395.259 468.701 406.822C452.643 412.802 428.661 413.083 411.875 409.711C407.566 408.675 404.486 407.817 400.337 406.443C396.583 405.199 388.51 401.266 385.086 401.092C384.996 401.027 384.906 400.962 384.816 400.897C373.986 388.111 365.338 365.597 363.086 349.405C366.271 345.608 368.715 343.057 372.219 339.56Z"/><path fill="#372A28" d="M494.536 289.056C499.325 288.711 503.916 288.624 508.322 290.89C531.338 302.726 529.89 345.878 504.602 354.276C468.104 363.261 462.916 297.675 494.536 289.056Z"/><path fill="#FEFDFC" d="M503.557 300.003C513.165 299.994 516.855 309.109 508.38 314.261C498.192 315.726 494.999 305.018 503.557 300.003Z"/><path fill="#6B5A53" d="M609.453 290.297C609.564 283.117 611.494 276.47 614.531 270.088C632.86 231.57 671.581 239.778 696.267 266.976C699.749 270.813 703.042 275.469 706.21 279.622L706.771 279.13C711.099 293.607 712.342 304.394 722.4 316.74C726.364 321.605 738.059 326.633 736.112 331.058C733.677 336.594 718.455 337.124 720.288 344.757C725.954 347.518 733.652 348.64 736.356 355.451C738.451 360.73 729.597 369.236 726.827 373.625C724.936 376.621 721.497 382.038 719.364 384.488C717.412 383.595 714.533 383.597 712.414 383.569C693.648 378.923 676.947 371.323 661.51 359.629C652.696 352.952 648.122 346.554 637.608 342.885C633.168 341.643 633.005 341.456 629.917 337.969L628.639 335.442C626.114 331.975 624.664 331.028 621.218 328.7C620.937 327.851 616.815 321.468 616.007 319.982C610.203 309.314 609.558 301.948 609.453 290.297Z"/><path fill="#7D746F" d="M628.639 335.442C631.751 334.593 636.623 340.19 637.608 342.885C633.168 341.643 633.005 341.456 629.917 337.969L628.639 335.442Z"/><path fill="#372A28" d="M632.1 303.287C638.554 272.968 666.537 272.436 672.846 302.632C675.37 314.715 674.099 334.741 661.384 341.399C645.329 348.812 633.526 331.565 632.12 317.768C631.375 311.75 631.479 309.364 632.1 303.287Z"/><path fill="#15110F" d="M632.1 303.287C633.3 306.832 633.203 314.296 632.12 317.768C631.375 311.75 631.479 309.364 632.1 303.287Z"/><path fill="#FEFDFC" d="M653.903 289.829C657.663 289.043 661.349 291.456 662.132 295.217C662.915 298.979 660.498 302.662 656.736 303.442C652.979 304.22 649.302 301.808 648.52 298.051C647.738 294.294 650.147 290.615 653.903 289.829Z"/><path fill="#C4B6A9" d="M370.984 310.023C396.719 276.243 429.56 243.883 469.79 230.094C506.978 217.348 548.151 232.41 558.286 271.856C559.763 277.605 564.257 299.207 561.686 304.024C553.526 267.893 522.334 242.651 485.002 251.959C439.506 263.302 406.349 309.976 372.219 339.56C368.715 343.057 366.271 345.608 363.086 349.405C362.034 343.732 360.601 326.839 361.829 321.459C364.51 317.678 367.614 313.691 370.511 310.058L370.984 310.023Z"/><path fill="#958378" d="M370.511 310.058L370.984 310.023C371.691 312.694 371.671 333.581 372.219 339.56C368.715 343.057 366.271 345.608 363.086 349.405C362.034 343.732 360.601 326.839 361.829 321.459C364.51 317.678 367.614 313.691 370.511 310.058Z"/><path fill="#6B5A53" d="M361.829 321.459C360.453 313.067 363.58 295.497 365.596 287.071C370.312 267.365 376.46 255.166 386.962 238.418C405.876 208.256 425.254 192.066 455.551 174.267C498.535 149.014 549.781 141.41 598.909 147.346C611.232 148.835 624.717 152.258 636.643 155.231C633.716 159.354 632.664 163.756 638.494 165.897C627.655 166.674 618.471 162.971 607.969 161.303C572.301 155.69 529.872 155.358 495.424 167.24C444.567 184.783 402.287 226.682 381.644 276.012C376.071 289.33 370.898 294.225 370.511 310.058C367.614 313.691 364.51 317.678 361.829 321.459Z"/><path fill="#C4B6A9" d="M608.385 297.874C606.976 284.321 604.942 269.238 608.372 256.007C616.519 224.585 651.006 209.998 679.073 226.714C681.948 228.426 689.019 233.663 691.709 234.345L693.078 233.324C699.826 250.64 703.455 260.742 706.771 279.13L706.21 279.622C703.042 275.469 699.749 270.813 696.267 266.976C671.581 239.778 632.86 231.57 614.531 270.088C611.494 276.47 609.564 283.117 609.453 290.297C609.037 292.592 608.862 295.246 608.385 297.874Z"/><path fill="#F1E8DA" d="M714.895 526.78C722.855 525.467 730.918 524.896 738.957 524.147C737.008 530.04 734.72 536.779 733.955 542.911C726.895 599.481 752.779 660.734 789.481 702.86C799.58 714.094 805.88 720.456 818.692 728.802C807.75 738.525 788.288 752.002 775.989 760.136C709.826 803.893 635.635 837.725 558.586 856.772C548.721 859.21 529.758 863.923 520.379 864.604C518.879 864.809 516.63 865.43 515.103 865.798L519.91 860.08C522.54 855.385 528.448 848.027 531.668 842.882C537.003 834.356 540.862 826.121 545.637 817.492C548.419 811.431 551.325 802.522 549.269 795.974C547.143 789.129 539.767 785.921 533.106 788.311C505.138 798.342 475.482 809.454 446.488 815.776C416.116 822.399 421.645 819.027 410.099 845.776C375.001 808.691 351.583 743.225 355.795 691.723C356.319 685.304 365.396 680.969 370.387 677.579C374.976 674.192 379.163 670.783 383.144 666.672C393.981 672.433 401.168 675.729 413.431 678.491C410.993 687.416 409.165 694.239 409.583 703.593C410.679 728.123 434.259 738.474 454.904 743.903C467.002 747.084 483.002 749.124 494.9 744.024C510.377 736.483 513.655 722.095 507.683 706.812C504.815 699.472 500.072 693.745 494.749 688.031C503.367 674.337 508.458 663.076 509.634 646.592C510.099 641.202 509.971 636.622 509.525 631.257C531.415 628.395 562.792 613.341 581.391 601.723C604.008 586.308 614.297 576.874 621.458 550.433C628.961 547.63 647.675 541.878 655.244 540.13C659.543 538.32 671.8 536.201 676.609 536.878C688.932 538.613 695.296 542.924 707.46 536.101C710.201 533.692 712.724 529.821 714.895 526.78Z"/><path fill="#C4B6A9" d="M789.481 702.86C799.58 714.094 805.88 720.456 818.692 728.802C807.75 738.525 788.288 752.002 775.989 760.136C709.826 803.893 635.635 837.725 558.586 856.772C548.721 859.21 529.758 863.923 520.379 864.604C518.879 864.809 516.63 865.43 515.103 865.798L519.91 860.08C522.54 855.385 528.448 848.027 531.668 842.882C537.003 834.356 540.862 826.121 545.637 817.492C549.965 816.894 569.46 810.473 575.027 808.726C642.337 787.592 706.846 756.422 766.35 718.626C771.405 715.415 786.03 706.439 789.481 702.86Z"/><path fill="#F1E8DA" d="M519.91 860.08L520.379 864.604C518.879 864.809 516.63 865.43 515.103 865.798L519.91 860.08Z"/><path fill="#C4B6A9" d="M383.144 666.672C393.981 672.433 401.168 675.729 413.431 678.491C410.993 687.416 409.165 694.239 409.583 703.593C410.679 728.123 434.259 738.474 454.904 743.903C467.002 747.084 483.002 749.124 494.9 744.024C495.108 745.15 495.062 744.797 494.934 745.963C493.11 748.817 489.355 751.35 486.528 753.28C476.157 760.058 461.692 759.073 450.285 756.684C419.135 750.161 391.256 727.793 399.754 692.609C386.366 689.586 381.808 684.066 370.856 677.842L370.387 677.579C374.976 674.192 379.163 670.783 383.144 666.672Z"/><path fill="#C4B6A9" d="M509.525 631.257C531.415 628.395 562.792 613.341 581.391 601.723C581.099 610.834 541.447 633.138 531.856 637.137C529.395 638.164 510.413 645.781 509.634 646.592C510.099 641.202 509.971 636.622 509.525 631.257Z"/><path fill="#C4B6A9" d="M707.46 536.101L708.151 537.394C707.337 539.789 702.964 542.926 700.86 543.851C690.073 548.595 679.663 543.704 668.971 541.823C666.92 541.463 661.454 541.844 659.008 541.884C661.288 541.278 662.634 541.801 664.539 540.522L664.465 539.605C663.078 538.815 657.993 540.403 655.244 540.13C659.543 538.32 671.8 536.201 676.609 536.878C688.932 538.613 695.296 542.924 707.46 536.101Z"/><path fill="#372A28" d="M589.732 690.488C581.294 670.82 579.328 651.765 587.281 631.554C601.615 595.127 642.663 577.057 678.985 592.6C714.903 607.971 733.365 649.188 717.883 685.666C714.545 693.529 710.454 699.191 705.104 705.756C707.746 705.653 705.265 705.027 707.98 704.762L708.071 705.091C705.278 710.238 700.243 715.488 696.021 719.538C669.316 745.146 627.709 744.591 602.081 717.752C596.97 712.4 587.439 697.499 587.811 690.002C588.969 690.835 588.346 690.689 589.732 690.488Z"/><path fill="#C4B6A9" d="M705.104 705.756C707.746 705.653 705.265 705.027 707.98 704.762L708.071 705.091C705.278 710.238 700.243 715.488 696.021 719.538C669.316 745.146 627.709 744.591 602.081 717.752C596.97 712.4 587.439 697.499 587.811 690.002C588.969 690.835 588.346 690.689 589.732 690.488C613.395 732.923 664.026 743.092 699.585 710.554C700.554 709.668 704.175 706.289 705.104 705.756Z"/><path fill="#E4583C" d="M645.157 599.788C677.337 595.633 706.819 618.281 711.097 650.445C715.376 682.608 692.84 712.176 660.693 716.578C628.372 721.003 598.608 698.319 594.307 665.981C590.005 633.643 612.803 603.966 645.157 599.788Z"/><path fill="#372A28" d="M648.361 612.188C673.905 609.841 696.534 628.598 698.966 654.134C701.399 679.669 682.717 702.361 657.19 704.879C631.542 707.408 608.719 688.619 606.275 662.962C603.832 637.306 622.697 614.546 648.361 612.188Z"/><path fill="#7D746F" d="M629.978 685.57C616.809 674.615 613.423 655.78 621.951 640.924C630.479 626.068 648.452 619.494 664.553 625.342C668.386 626.734 671.95 628.781 675.083 631.392C688.152 642.28 691.58 660.948 683.233 675.769C674.886 690.59 657.145 697.336 641.06 691.806C637.018 690.416 633.263 688.303 629.978 685.57Z"/><path fill="#7D746F" d="M675.083 631.392C688.152 642.28 691.58 660.948 683.233 675.769C674.886 690.59 657.145 697.336 641.06 691.806C650.981 682.459 669.367 645.1 675.083 631.392Z"/><path fill="#958378" d="M664.553 625.342C668.386 626.734 671.95 628.781 675.083 631.392C669.367 645.1 650.981 682.459 641.06 691.806C637.018 690.416 633.263 688.303 629.978 685.57C638.873 676.67 660.104 639.896 663.683 628.204L664.553 625.342Z"/><path fill="#F1E8DA" d="M382.958 112.276C483.9 29.0273 637.26 42.9693 720.401 144.036C759.802 191.932 776.644 248.381 770.164 310.053C765.357 357.662 745.824 397.484 708.754 428.473C689.948 444.194 661.79 459.776 636.962 461.11C666.872 451.371 689.295 441.436 711.681 418.071C720.313 409.313 728.113 399.542 733.618 388.498C734.844 386.039 737.697 379.802 739.335 377.878C751.743 363.303 757.035 359.007 741.201 343.377C760.499 324.009 746.598 322.159 732.94 307.088C719.971 292.778 721.536 270.148 715.682 252.771C710.543 235.495 706.833 230.208 699.698 214.807C706.644 193.712 708.339 172.76 698.665 152.223C688.138 129.874 665.251 141.728 648.451 146.257C599.384 124.181 527.496 128.413 477.81 147.165C426.553 166.509 382.891 204.695 361.108 255.447C340.327 303.863 340.902 355.859 367.186 402.029C367.663 404.252 368.385 404.671 367.97 406.457L367.073 406.598C366.231 406.098 365.159 405.47 364.446 404.789C329.177 371.124 313.625 319.578 317.283 271.617C318.233 259.161 321.178 249.241 323.475 237.296C323.429 237.003 323.382 236.71 323.336 236.417C334.823 220.335 346.905 203.936 360.816 189.822C371.103 179.384 381.856 168.611 392.14 158.248C413.766 136.457 404.52 125.948 382.958 112.276Z"/><path fill="#FEFDFC" d="M717.906 186.546C718.939 186.495 720.059 186.41 721.072 186.651C726.137 187.858 730.538 195.06 732.956 199.303C736.818 206.078 751.185 239.345 748.315 246.388C747.6 248.141 746.051 249.157 744.413 249.903C739.017 250.873 735.843 251.353 732.75 246.414C728.345 238.841 725.843 231.248 722.773 222.814C719.602 214.101 711.635 202.135 713.43 192.706C713.94 190.027 715.716 187.929 717.906 186.546Z"/><path fill="#FEFDFC" d="M615.496 94.0843C629.506 93.0272 649.335 103.554 657.452 115.045C660.312 119.094 657.104 122.881 653.26 124.603C642.626 124.794 632.535 118.178 623.39 113.267C615.695 109.134 603.815 101.607 615.496 94.0843Z"/><path fill="#FEFDFC" d="M574.745 79.9755C580.249 79.9042 586.736 80.9513 590.522 85.4856C592.975 88.4228 589.534 91.8698 586.932 93.254C577.803 94.7885 563.797 90.4456 574.745 79.9755Z"/><path fill="#6B5A53" d="M163.902 454.059C163.42 451.86 163.273 446.693 163.145 444.262C162.346 429.118 158.817 415.253 151.403 402.003C150.05 399.585 142.894 391.755 142.883 389.868C142.839 382.607 160.99 379.723 166.575 379.325C188.032 378.263 216.46 386.234 232.661 400.15C244.485 408.064 252.817 418.173 260.854 429.795C269.799 441.451 275.326 460.189 279.682 474.307C282.518 484.6 284.817 496.361 287.203 506.885C289.144 521.785 294.197 531.841 301.788 544.323C305.468 549.368 307.869 551.909 312.778 555.979C313.652 556.704 317.373 559.701 317.99 560.347C329.002 567.015 324.425 578.579 344.53 586.378C344.319 590.682 343.988 595.405 344.001 599.679C334.26 605.861 319.763 610.925 308.364 613.266C296.407 615.462 282.532 615.757 270.544 613.787C256.594 612.214 231.058 603.683 220.331 594.486C206.505 584.365 196.695 575.046 187.697 560.095C179.345 549.225 167.662 516.855 167.473 503.129C164.822 486.821 164.099 470.569 163.902 454.059Z"/><path fill="#6B5A53" d="M224.545 571.595C225.576 569.287 226.474 566.719 227.549 564.378C237.709 542.268 264.586 515.413 287.203 506.885C289.144 521.785 294.197 531.841 301.788 544.323C305.468 549.368 307.869 551.909 312.778 555.979C313.652 556.704 317.373 559.701 317.99 560.347C329.002 567.015 324.425 578.579 344.53 586.378C344.319 590.682 343.988 595.405 344.001 599.679C334.26 605.861 319.763 610.925 308.364 613.266C296.407 615.462 282.532 615.757 270.544 613.787C256.594 612.214 231.058 603.683 220.331 594.486C220.597 589.846 222.908 575.973 224.583 571.932L224.545 571.595Z"/><path fill="#958378" d="M301.788 544.323C305.468 549.368 307.869 551.909 312.778 555.979C313.652 556.704 317.373 559.701 317.99 560.347C329.002 567.015 324.425 578.579 344.53 586.378C344.319 590.682 343.988 595.405 344.001 599.679C334.26 605.861 319.763 610.925 308.364 613.266C296.407 615.462 282.532 615.757 270.544 613.787C270.477 606.68 270.05 600.403 271.372 593.379L271.611 591.904C277.309 569.678 284.632 559.255 301.788 544.323Z"/><defs><linearGradient id="gradient_0" gradientUnits="userSpaceOnUse" x1="329.03412" y1="606.23981" x2="310.14426" y2="565.10773"><stop offset="0" stop-color="#52433F"/><stop offset="1" stop-color="#715F58"/></linearGradient></defs><path fill="url(#gradient_0)" d="M317.99 560.347C329.002 567.015 324.425 578.579 344.53 586.378C344.319 590.682 343.988 595.405 344.001 599.679C334.26 605.861 319.763 610.925 308.364 613.266C305.335 608.333 303.855 600.121 304.608 594.372C305.149 592.759 306.049 587.608 306.627 585.416C309.14 575.873 312.441 568.466 317.99 560.347Z"/><path fill="#7D746F" d="M271.372 593.379C283.62 595.124 292.009 595.747 304.608 594.372C303.855 600.121 305.335 608.333 308.364 613.266C296.407 615.462 282.532 615.757 270.544 613.787C270.477 606.68 270.05 600.403 271.372 593.379Z"/><path fill="#584742" d="M224.583 571.932C236.143 579.891 256.73 591.333 270.291 592.637L271.611 591.904L271.372 593.379C270.05 600.403 270.477 606.68 270.544 613.787C256.594 612.214 231.058 603.683 220.331 594.486C220.597 589.846 222.908 575.973 224.583 571.932Z"/><path fill="#958378" d="M163.902 454.059C163.42 451.86 163.273 446.693 163.145 444.262C162.346 429.118 158.817 415.253 151.403 402.003C150.05 399.585 142.894 391.755 142.883 389.868C142.839 382.607 160.99 379.723 166.575 379.325C188.032 378.263 216.46 386.234 232.661 400.15C244.485 408.064 252.817 418.173 260.854 429.795C220.516 435.51 202.365 454.001 178.662 484.406L178.51 484.643C174.354 490.309 171.572 497.537 167.473 503.129C164.822 486.821 164.099 470.569 163.902 454.059Z"/><path fill="#6B5A53" d="M163.902 454.059C163.42 451.86 163.273 446.693 163.145 444.262C162.346 429.118 158.817 415.253 151.403 402.003C150.05 399.585 142.894 391.755 142.883 389.868C142.839 382.607 160.99 379.723 166.575 379.325C188.032 378.263 216.46 386.234 232.661 400.15C203.092 410.184 192.234 417.633 172.358 441.995C168.456 445.918 166.855 450.038 163.902 454.059Z"/><path fill="#7D746F" d="M172.358 441.995C173.461 451.103 175.091 476.818 178.662 484.406L178.51 484.643C174.354 490.309 171.572 497.537 167.473 503.129C164.822 486.821 164.099 470.569 163.902 454.059C166.855 450.038 168.456 445.918 172.358 441.995Z"/><path fill="#958378" d="M279.682 474.307C282.518 484.6 284.817 496.361 287.203 506.885C264.586 515.413 237.709 542.268 227.549 564.378C226.474 566.719 225.576 569.287 224.545 571.595L224.583 571.932C222.908 575.973 220.597 589.846 220.331 594.486C206.505 584.365 196.695 575.046 187.697 560.095C189.451 555.577 195.348 543.166 197.82 539.167L197.951 538.397C210.27 513.985 234.092 490.978 259.197 480.254C265.732 477.463 272.772 475.87 279.682 474.307Z"/><path fill="#6B5A53" d="M187.697 560.095C189.451 555.577 195.348 543.166 197.82 539.167C202.342 550.119 215.19 564.489 224.545 571.595L224.583 571.932C222.908 575.973 220.597 589.846 220.331 594.486C206.505 584.365 196.695 575.046 187.697 560.095Z"/><path fill="#584742" d="M178.51 484.643L178.64 487.629C179.108 496.578 191.532 531.51 197.951 538.397L197.82 539.167C195.348 543.166 189.451 555.577 187.697 560.095C179.345 549.225 167.662 516.855 167.473 503.129C171.572 497.537 174.354 490.309 178.51 484.643Z"/><path fill="#E4583C" d="M752.711 523.105C802.141 521.588 848.371 524.233 894.808 543.884C906.129 548.675 920.625 556.03 925.325 568.1C926.038 586.823 918.925 601.084 910.692 617.429C890.745 657.032 861.813 690.656 828.947 720.153C817.075 711.989 809.627 706.095 799.745 695.251C783.917 677.59 769.374 653.664 760.337 631.758C747.369 600.325 739.433 555.308 752.711 523.105Z"/><path fill="#BA4031" d="M925.325 568.1C926.038 586.823 918.925 601.084 910.692 617.429C890.745 657.032 861.813 690.656 828.947 720.153C817.075 711.989 809.627 706.095 799.745 695.251C807.849 689.482 817.67 683.597 825.484 677.267C849.412 657.884 872.617 637.304 892.052 613.309C899.47 604.151 905.444 594.822 912.172 585.289C915.176 581.033 921.7 571.122 925.325 568.1Z"/><path fill="#FC7C3E" d="M771.025 528.203C786.881 526.508 841.006 530.143 856.591 538.958C857.362 539.393 858.206 541.158 858.215 542.283C858.234 544.633 856.877 546.733 855.181 548.26C853.338 549.918 851.741 549.532 849.381 549.335C838.065 548.213 826.537 546.018 815.242 544.563C801.399 542.779 787.712 542.238 773.784 541.625C770.488 541.204 761.236 541.771 760.918 536.977C760.388 528.982 765.349 528.629 771.025 528.203Z"/><path fill="#FC7C3E" d="M875.574 545.537C890.795 546.422 900.518 561.243 887.208 562.606C880.274 561.521 865.463 560.735 869.937 550.048C871.088 547.299 872.993 546.636 875.574 545.537Z"/><path fill="#C4B6A9" d="M399.72 471.059C412.347 475.597 426.626 480.531 439.538 484.023C486.818 496.812 563.824 505.93 610.903 490.05L611.435 496.461C612.308 515.154 612.487 539.021 606.838 557.141C605.364 561.871 600.793 569.158 597.392 572.747C578.297 592.896 533.188 614.982 506.181 618.361C518.724 606.341 520.874 594.113 513.715 578.508C533.672 582.356 565.087 582.803 584.202 574.601C593 570.826 591.415 530.936 593.163 521.332C593.958 516.963 589.921 510.393 584.886 510.172C563.293 510.861 541.085 510.754 519.543 511.466C511.379 511.736 507.21 522.043 506.97 528.685C505.64 540.487 505.365 552.546 503.916 564.283C499.522 558.729 491.166 552.046 485.947 546.386C477.528 537.446 472.4 526.583 466.172 516.034C464.474 513.158 460.464 504.241 456.522 503.245C453.271 502.423 451.535 506.957 452.328 509.971C455.515 522.088 463.197 536.453 470.118 546.589C452.85 551.345 442.013 558.685 432.115 574.242C429.476 578.586 428.573 581.053 427.045 585.953C414.964 577.141 405.363 568.743 399.48 554.553C397.682 550.217 396.552 545.559 394.728 541.225C393.189 536.636 387.395 535.422 385.71 540.454C383.633 546.657 388.412 558.352 390.913 563.704C398.67 580.267 411.855 590.875 426.721 600.681C429.798 602.711 432.586 607.903 436.571 610.365C454.941 621.713 474.096 637.713 495.853 625.685C496.236 627.929 496.641 630.157 496.926 632.416C497.367 647.511 495.377 667.245 484.538 678.826C472.808 691.36 438.865 686.05 427.881 674.571C429.795 668.984 436.536 654.557 425.21 656.072C422.259 659.274 419.844 662.136 417.065 665.484C388.682 659.724 363.195 636.324 359.039 607.746C353.329 568.487 378.051 502.526 399.72 471.059Z"/><path fill="#F1E8DA" d="M432.115 574.242C408.011 564.207 396.841 528.057 405.308 504.984C408.346 496.705 416.278 487.912 425.697 489.056C439.498 490.734 453.291 497.841 467.182 500.377C503.567 507.543 540.597 509.26 577.377 504.112C583.491 503.256 608.664 495.529 611.435 496.461C612.308 515.154 612.487 539.021 606.838 557.141C605.364 561.871 600.793 569.158 597.392 572.747C578.297 592.896 533.188 614.982 506.181 618.361C518.724 606.341 520.874 594.113 513.715 578.508C533.672 582.356 565.087 582.803 584.202 574.601C593 570.826 591.415 530.936 593.163 521.332C593.958 516.963 589.921 510.393 584.886 510.172C563.293 510.861 541.085 510.754 519.543 511.466C511.379 511.736 507.21 522.043 506.97 528.685C505.64 540.487 505.365 552.546 503.916 564.283C499.522 558.729 491.166 552.046 485.947 546.386C477.528 537.446 472.4 526.583 466.172 516.034C464.474 513.158 460.464 504.241 456.522 503.245C453.271 502.423 451.535 506.957 452.328 509.971C455.515 522.088 463.197 536.453 470.118 546.589C452.85 551.345 442.013 558.685 432.115 574.242Z"/><path fill="#F1E8DA" d="M425.21 656.072C407.607 646.845 386.447 634.182 384.434 611.581C383.803 604.499 385.41 595.307 390.227 589.862C398.287 595.264 406.662 601.066 415.003 605.991C418.878 608.424 425.396 610.02 429.026 612.43C446.096 623.761 465.6 635.023 486.856 633.365C489.29 633.175 494.91 631.385 496.926 632.416C497.367 647.511 495.377 667.245 484.538 678.826C472.808 691.36 438.865 686.05 427.881 674.571C429.795 668.984 436.536 654.557 425.21 656.072Z"/><path fill="#E4583C" d="M366.473 934.178C386.838 914.069 403.453 892.249 415.501 866.264C419.825 856.938 423.438 847.429 427.62 838.025C430.217 832.184 434.862 831.878 440.502 830.594C465.386 825.659 489.437 817.463 513.363 809.172C521.311 806.418 529.032 802.907 537.074 800.355C535.853 807.768 533.24 812.36 529.632 818.899C501.783 874.934 454.266 918.76 394.628 938.279C382.3 942.314 370.431 945.663 357.336 944.639C359.997 939.663 362.176 937.91 366.473 934.178Z"/><path fill="#BA4031" d="M366.473 934.178L365.538 936.511C370.657 939.091 389.125 930.097 394.772 928.058C430.63 915.112 464.614 892.256 490.686 864.48C500.186 854.358 508.861 843.047 518.38 832.878C521.356 829.701 521.51 826.36 524.126 823.277L524.457 823.591L523.188 826.813C524.832 826.735 526.612 820.672 529.632 818.899C501.783 874.934 454.266 918.76 394.628 938.279C382.3 942.314 370.431 945.663 357.336 944.639C359.997 939.663 362.176 937.91 366.473 934.178Z"/><defs><linearGradient id="gradient_1" gradientUnits="userSpaceOnUse" x1="626.73572" y1="372.40967" x2="292.05319" y2="352.22211"><stop offset="0" stop-color="#B1A398"/><stop offset="1" stop-color="#CEC2B7"/></linearGradient></defs><path fill="url(#gradient_1)" d="M300.845 242.245C310.259 245.805 316.412 242.877 323.336 236.417C323.382 236.71 323.429 237.003 323.475 237.296C321.178 249.241 318.233 259.161 317.283 271.617C313.625 319.578 329.177 371.124 364.446 404.789C365.159 405.47 366.231 406.098 367.073 406.598L367.97 406.457C368.385 404.671 367.663 404.252 367.186 402.029C372.807 410.224 377.133 416.389 384.092 423.748C409.263 450.365 443.221 462.295 478.273 468.906C521.997 477.153 579.938 477.877 622.93 465.709C618.818 473.015 615.224 474.78 607.054 477.13C594.559 480.724 581.651 481.753 568.76 482.673C514.659 486.535 459.141 476.517 408.482 457.553C394.338 452.259 379.201 445.648 365.909 438.487C355.496 432.876 336.336 418.509 329.812 408.476C323.437 401.453 315.855 390.2 311.225 381.839C286.484 337.162 282.431 287.764 295.988 239.052C297.553 240.177 299.219 241.206 300.845 242.245Z"/><path fill="#F1E8DA" d="M295.988 239.052C297.553 240.177 299.219 241.206 300.845 242.245C290.295 289.478 296.293 346.632 322.515 387.85C323.326 389.124 326.437 392.869 326.518 393.909C325.305 393.191 325.123 392.669 324.33 391.487C322.062 390.815 320.267 391.538 319.976 394.036C321.758 398.776 329.419 404.766 329.812 408.476C323.437 401.453 315.855 390.2 311.225 381.839C286.484 337.162 282.431 287.764 295.988 239.052Z"/><path fill="#958378" d="M292.542 109.23C293.767 107.971 296.078 105.591 297.553 104.921C322.035 93.8064 376.145 119.215 391.509 137.527C388.051 145.399 377.26 155.684 370.827 161.888C361.934 148.665 340.243 137.643 324.743 134.922C315.239 133.253 310.23 134.152 309.344 144.666L309.776 145.095C310.617 143.003 309.915 143.65 311.696 142.829C314.673 143.052 318.464 144.623 321.318 145.644C337.165 151.311 347.408 159.27 360.207 169.661C355.343 175.277 350.41 181.09 345.399 186.57C337.555 195.147 331.192 204.247 324.272 213.552C322.379 216.579 320.737 219.184 318.64 222.069C317.542 224.149 313.183 229.342 310.969 230.37C310.386 230.871 308.433 230.944 307.867 230.261C289.337 207.901 278.008 130.649 292.542 109.23Z"/><path fill="#584742" d="M309.344 144.666L309.776 145.095C310.617 143.003 309.915 143.65 311.696 142.829C314.673 143.052 318.464 144.623 321.318 145.644C337.165 151.311 347.408 159.27 360.207 169.661C355.343 175.277 350.41 181.09 345.399 186.57C337.555 195.147 331.192 204.247 324.272 213.552C316.769 201.431 312.527 187.48 310.209 173.507C309.223 167.559 307.12 150.296 309.344 144.666Z"/><path fill="#6B5A53" d="M292.542 109.23C294.27 109.559 295.426 109.726 297.097 110.349C298.149 144.889 298.116 174.412 312.438 206.718C314.262 210.832 316.532 218.764 318.64 222.069C317.542 224.149 313.183 229.342 310.969 230.37C310.386 230.871 308.433 230.944 307.867 230.261C289.337 207.901 278.008 130.649 292.542 109.23Z"/><path fill="#E4583C" d="M212.155 692.973C222.999 679.988 241.691 669.256 257.217 662.35C290.645 647.481 325.976 652.072 359.07 665.114L360.56 665.571L360.82 666.359C359.242 668.431 356.08 670.24 353.945 671.917C339.117 683.561 323.973 695.614 311.374 709.691C307.981 713.482 304.979 717.983 301.32 721.5C275.947 709.248 258.243 702.836 229.498 700.373C224.699 699.962 213.072 700.624 210.371 696.954C210.282 695.037 210.759 694.328 212.155 692.973Z"/><path fill="#BA4031" d="M359.07 665.114L360.56 665.571L360.82 666.359C359.242 668.431 356.08 670.24 353.945 671.917C339.117 683.561 323.973 695.614 311.374 709.691C307.981 713.482 304.979 717.983 301.32 721.5C275.947 709.248 258.243 702.836 229.498 700.373C224.699 699.962 213.072 700.624 210.371 696.954C210.282 695.037 210.759 694.328 212.155 692.973C214.525 694.243 222.332 693.018 225.565 692.992C232.079 692.941 239.292 692.291 245.779 693.036C257.757 694.412 269.739 697.233 281.484 699.916C291.364 702.349 296.894 704.817 307.313 706.055C313.288 702.591 316.886 697.019 321.942 692.796C333.84 682.859 344.904 671.496 359.07 665.114Z"/><path fill="#E4583C" d="M314.044 728.789C320.68 718.596 333.582 707.95 343.036 700.019C342.887 713.01 343.518 735.526 347.825 748.062C349.165 749.796 358.157 780.875 357.877 782.581C362.218 797.612 376.261 822.915 385.034 835.876C373.954 840.817 359.269 838.013 347.853 836.449C328.085 806.886 315.124 764.171 314.044 728.789Z"/><path fill="#15110F" d="M347.825 748.062C349.165 749.796 358.157 780.875 357.877 782.581C354.511 774.403 348.995 756.739 347.825 748.062Z"/><path fill="#6B5A53" d="M438.787 592.884C443.908 569.118 454.4 563.879 476.154 555.33C484.418 560.448 502.721 580.35 504.792 589.865C505.71 594.043 505.749 595.417 504.67 599.556C503.711 603.482 501.27 606.031 498.498 608.67C496.625 605.699 492.595 597.22 488.632 597.278L487.979 598.093C487.454 601.727 489.175 607.001 489.761 610.812C491.021 614.981 485.53 618.143 481.951 617.97C467.126 617.256 448.782 602.155 438.787 592.884Z"/><path fill="#7D746F" d="M504.67 599.556C503.746 595.175 503.625 594.165 504.792 589.865C505.71 594.043 505.749 595.417 504.67 599.556Z"/><path fill="#C4B6A9" d="M372.579 459.826C377.757 461.713 383.443 464.276 388.87 466.318C366.137 499.678 358.862 529.298 346.508 566.767L345.833 568.186L344.784 568.482C338.1 566.281 332.15 551.896 332.388 545.182C333.525 513.099 350.963 482.628 372.579 459.826Z"/><path fill="#6B5A53" d="M284.749 783.526C284.195 780.236 284.009 776.932 283.641 773.693C281.771 757.222 289.533 755.526 302.804 751.022C304.111 759.566 305.548 770.013 308.246 778.071C312.837 794.969 317.688 808.628 325.227 824.576C327.546 829.48 331.17 835.414 333.126 839.763C328.683 841.141 312.601 845.704 309.163 847.283C307.525 845.18 304.893 840.385 303.437 837.821C293.364 820.085 288.472 803.422 284.749 783.526Z"/><path fill="#7D746F" d="M284.749 783.526C284.195 780.236 284.009 776.932 283.641 773.693C281.771 757.222 289.533 755.526 302.804 751.022C304.111 759.566 305.548 770.013 308.246 778.071C302.414 777.536 290.223 781.219 284.749 783.526Z"/><path fill="#6B5A53" d="M424.331 687.298C444.054 700.483 461.121 700.378 483.756 694.875C491.187 703.039 503.509 717.993 493.878 728.561C486.05 735.616 473.398 734.653 463.535 732.369C451.092 729.489 433.342 723.247 425.697 712.197C420.628 704.871 422.455 695.359 424.331 687.298Z"/><path fill="#BA4031" d="M517.289 880.242L518.227 880.161L518.467 880.939C514.519 890.789 496.246 911.025 488.349 918.879C473.249 933.898 434.431 956.401 413.124 955.963C405.47 947.623 421.57 942.802 427.106 940.187C448.437 930.113 468.514 916.028 485.81 900.008C492.09 894.192 497.52 887.599 503.684 881.708C507.838 880.993 513.024 880.643 517.289 880.242Z"/><path fill="#C4B6A9" d="M635.185 476.319C639.019 477.76 642.009 479.25 645.699 481.064C651.728 483.813 661.307 488.67 667.192 490.512C659.907 498.448 656.897 502.992 656.669 514.196C657.133 518.524 657.425 521.379 658.588 525.56C645.207 529.015 636.046 531.511 622.949 536.084C622.939 530.162 623.711 523.62 623.852 517.6C624.11 506.595 623.788 495.532 622.327 484.622C627.394 482.285 630.56 479.384 635.185 476.319Z"/><path fill="#F1E8DA" d="M656.669 514.196C656.351 516.239 656.728 516.245 655.519 517.197C648.295 516.191 638.526 516.759 635.199 508.652C630.584 497.403 636.077 486.74 645.699 481.064C651.728 483.813 661.307 488.67 667.192 490.512C659.907 498.448 656.897 502.992 656.669 514.196Z"/><path fill="#F1E8DA" d="M564.246 524.235L577.004 523.724C577.634 533.923 575.174 549.434 578.001 557.59C576.698 560.325 575.251 563.125 573.894 565.845C570.769 565.979 568.004 566.179 564.885 565.854C561.159 563.134 564.933 552.425 563.059 546.964C559.532 544.095 551.45 557.567 549.492 560.326C546.867 557.554 540.176 547.651 536.937 547.37C535.697 548.62 536.19 547.853 535.964 550.08C535.381 554.998 535.06 560.84 534.671 565.841C530.642 566.025 526.264 565.917 522.206 565.896C522.314 554.04 524.286 536.896 525.079 524.42C529.511 524.442 532.942 524.49 537.336 524.894C541.146 529.269 545.426 539.628 549.123 541.208C554.349 543.442 558.814 526.394 564.246 524.235Z"/><path fill="#6B5A53" d="M694.447 494.193C708.609 492.478 727.901 496.239 733.062 511.451C726.904 511.845 718.726 511.694 712.969 513.616C707.267 515.519 705.771 518.522 703.451 523.393C698.048 530.819 684.933 524.656 677.951 522.943C673.813 521.928 668.806 520.518 668.836 515.209C668.93 498.295 681.247 496.035 694.447 494.193Z"/><path fill="#BA4031" d="M385.034 835.876C392.689 845.624 394.951 849.339 404.06 858.643C400.954 864.766 396.358 874.986 391.513 879.339L390.959 879.845C375.032 875.587 355.624 850.908 347.853 836.449C359.269 838.013 373.954 840.817 385.034 835.876Z"/><path fill="#958378" d="M709.368 85.1257C721.763 83.5717 727.75 89.1274 731.381 100.727C735.182 112.875 735.331 125.662 734.996 138.272C732.097 134.33 729.121 130.901 725.945 127.201C715.33 114.643 700.195 101.725 687.163 91.8024C694.526 88.8756 701.57 86.6323 709.368 85.1257Z"/><path fill="#584742" d="M333.126 839.763C335.466 843.092 337.88 847.322 340.213 850.91C343.25 855.579 346.963 860.423 349.838 865.024C342.136 869.163 338.336 870.75 329.402 870.538C321.365 864.664 313.469 856.374 309.163 847.283C312.601 845.704 328.683 841.141 333.126 839.763Z"/><path fill="#FC7C3E" d="M151.938 807.627C154.513 795.467 169.43 783.627 179.363 777.42C199.411 764.892 222.781 755.823 246.778 758.274C255.379 759.153 261.548 760.539 269.898 762.356C269.345 767.154 269.863 773.094 270.135 778.004L270.405 777.913C270.829 782.348 271.15 785.396 272.134 789.739L273.13 793.562C276.084 810.932 288.283 840.482 297.893 855.192C300.472 859.193 303.22 863.531 305.921 867.438L314.4 878.211C313.5 882.465 311.88 885.508 309.917 889.315C294.472 919.272 263.511 933.116 231.664 938.215C227.062 938.952 220.277 940.138 216.089 937.56C208.882 933.124 213.544 919.947 217.202 914.497C184.791 919.711 157.556 921.106 124.998 912.145C119.056 910.51 115.528 908.125 112.721 902.744C116.696 880.533 136.303 852.148 151.122 835.542C155.859 830.235 162.639 825.603 166.622 819.834C158.766 816.261 155.929 815.404 151.938 807.627Z"/><path fill="#E4583C" d="M151.938 807.627C154.513 795.467 169.43 783.627 179.363 777.42C199.411 764.892 222.781 755.823 246.778 758.274C255.379 759.153 261.548 760.539 269.898 762.356C269.345 767.154 269.863 773.094 270.135 778.004C262.482 776.749 251.582 774.739 244.083 774.343C225.903 773.383 203.472 779.904 188.467 790.279C184.689 792.891 181.911 795.735 178.967 799.186C182.882 802.659 187.386 804.072 192.417 805.529C199.075 807.458 204.244 810.521 197.402 817.104C190.717 823.536 182.575 828.939 175.815 835.375C161.12 848.691 137.963 875.725 133.723 894.908C138.507 897.388 143.84 898.311 149.179 899.402C173.444 904.359 199.383 902.008 223.139 895.49C227.185 894.38 233.751 891.427 237.544 890.95C243.12 896.626 233.426 914.193 231.043 920.317C261.814 916.458 279.51 904.459 298.417 880.17C301.326 876.433 304.59 872.048 305.921 867.438L314.4 878.211C313.5 882.465 311.88 885.508 309.917 889.315C294.472 919.272 263.511 933.116 231.664 938.215C227.062 938.952 220.277 940.138 216.089 937.56C208.882 933.124 213.544 919.947 217.202 914.497C184.791 919.711 157.556 921.106 124.998 912.145C119.056 910.51 115.528 908.125 112.721 902.744C116.696 880.533 136.303 852.148 151.122 835.542C155.859 830.235 162.639 825.603 166.622 819.834C158.766 816.261 155.929 815.404 151.938 807.627Z"/><path fill="#FEB14F" d="M235.626 808.062C231.298 806.402 223.982 806.6 221.457 803.551C218.532 799.276 223.26 792.4 227.14 790.337C239.391 783.826 259.101 786.26 272.134 789.739L273.13 793.562C276.084 810.932 288.283 840.482 297.893 855.192C288.65 868.967 276.102 886.279 257.504 885.905C247.084 885.696 254.775 873.335 255.429 868.712C255.877 865.546 255.354 862.384 255.913 858.759C237.423 873.993 219.152 879.975 195.232 878.774C191.827 878.049 172.184 880.359 174.969 872.745C186.322 841.708 209.693 825.381 235.626 808.062Z"/><path fill="#FC7C3E" d="M153.938 931.593C160.182 931.153 166.218 932.555 162.469 940.958C160.755 944.799 156.723 946.03 152.898 947.096C139.109 948.58 139.342 934.429 153.938 931.593Z"/><path fill="#FC7C3E" d="M110.691 856.949C122.457 856.899 118.072 868.641 109.596 872.931C104.383 873.529 100.204 872.392 102.088 865.774C103.399 861.171 106.586 858.974 110.691 856.949Z"/><path fill="#FC7C3E" d="M90.0582 911.521C100.579 910.609 101.609 922.747 91.3327 926.472C80.0895 926.448 81.2403 916.607 90.0582 911.521Z"/></svg>